M48
METRIC,LZ,000.000
;FILE_FORMAT=3:3
;TYPE=PLATED
;Layer: PTH_Through
;EasyEDA v6.5.5, 2022-06-04 12:09:53
;3e123cf2e83c460a892e92cee729170b,ccec236b37084310ae2d027740726036,10
;Gerber Generator version 0.2
;Holesize 1 = 0.501 mm
T01C0.501
;Holesize 2 = 0.849 mm
T02C0.849
;Holesize 3 = 0.915 mm
T03C0.915
%
G05
G90
T01
X060960Y047625
X048275Y073025
X048260Y040640
X035560Y039878
X036576Y042545
X039116Y060325
X055880Y062738
X040640Y067945
X035560Y055245
X038100Y065278
X031496Y070485
X034036Y057785
X065278Y070485
T02
X046736Y080772
X044196Y080772
X041656Y080772
X039116Y080772
X036576Y080772
X034036Y080772
X031496Y080772
X028956Y080772
X026416Y080772
X023876Y080772
X068580Y080772
X066040Y080772
X063500Y080772
X060960Y080772
X058420Y080772
X055880Y080772
X053340Y080772
X050800Y080772
X055880Y032512
X058420Y032512
X060960Y032512
X063500Y032512
X066040Y032512
X068580Y032512
X033020Y032512
X035560Y032512
X038100Y032512
X040640Y032512
X043180Y032512
X045720Y032512
X048260Y032512
X050800Y032512
X045720Y038227
X043180Y038227
X040640Y038227
X040640Y038227
X043180Y038227
X045720Y038227
T03
X045720Y040661
X043180Y040635
X040640Y040617
X028282Y055245
X030822Y055245
X030820Y047625
X028280Y047625
X078740Y073025
X076200Y073025
X043180Y034925
X040640Y034936
X039116Y078105
X041656Y078105
X044196Y078105
X046736Y078105
X050800Y078105
X053340Y078105
X055880Y078105
X081280Y073025
X081280Y070485
X081280Y067945
X081280Y065405
X078740Y067945
X078740Y070485
X078740Y073025
X078740Y065405
X081280Y050164
X081280Y052704
X081280Y055244
X081280Y047625
X078740Y047625
X078740Y050165
X078740Y052705
X078740Y055245
X068580Y034925
X066040Y034925
X055880Y034925
X058420Y034925
X060960Y034925
X063500Y034925
X048260Y035052
X050800Y035052
X038100Y034925
X035560Y034925
X033020Y034925
X023876Y078105
X026416Y078105
X028956Y078105
X031496Y078105
X034036Y078105
X036576Y078105
X058420Y078105
X060960Y078105
X068580Y078105
X066040Y078105
X063500Y078105
X011430Y040005
X011430Y073025
X011430Y070485
X011430Y067945
X011430Y065405
X011430Y062865
X011430Y060325
X011430Y057785
X011430Y055245
X011430Y052705
X011430Y045085
X011430Y050165
X011430Y047625
X011430Y042545
X007620Y040005
X007620Y042545
X007620Y045085
X007620Y047625
X007620Y050165
X007620Y052705
X007620Y073025
X007620Y070485
X007620Y067945
X007620Y065405
X007620Y062865
X007620Y060325
X007620Y057785
X007620Y055245
M30
