G04 Layer: TopSolderMaskLayer*
G04 EasyEDA v6.5.5, 2022-06-04 12:09:53*
G04 3e123cf2e83c460a892e92cee729170b,ccec236b37084310ae2d027740726036,10*
G04 Gerber Generator version 0.2*
G04 Scale: 100 percent, Rotated: No, Reflected: No *
G04 Dimensions in millimeters *
G04 leading zeros omitted , absolute positions ,4 integer and 5 decimal *
%FSLAX45Y45*%
%MOMM*%

%ADD23R,1.5240X1.8085*%
%ADD24C,1.6256*%

%LPD*%
G36*
X4597400Y7986776D02*
G01*
X4597400Y8167623D01*
X4749800Y8167623D01*
X4749800Y7986776D01*
G37*
G36*
X4343400Y7986776D02*
G01*
X4343400Y8167623D01*
X4495800Y8167623D01*
X4495800Y7986776D01*
G37*
G36*
X4089400Y7986776D02*
G01*
X4089400Y8167623D01*
X4241800Y8167623D01*
X4241800Y7986776D01*
G37*
G36*
X3835400Y7986776D02*
G01*
X3835400Y8167623D01*
X3987800Y8167623D01*
X3987800Y7986776D01*
G37*
G36*
X3581400Y7986776D02*
G01*
X3581400Y8167623D01*
X3733800Y8167623D01*
X3733800Y7986776D01*
G37*
G36*
X3327400Y7986776D02*
G01*
X3327400Y8167623D01*
X3479800Y8167623D01*
X3479800Y7986776D01*
G37*
G36*
X3073400Y7986776D02*
G01*
X3073400Y8167623D01*
X3225800Y8167623D01*
X3225800Y7986776D01*
G37*
G36*
X2819400Y7986776D02*
G01*
X2819400Y8167623D01*
X2971800Y8167623D01*
X2971800Y7986776D01*
G37*
G36*
X2565400Y7986776D02*
G01*
X2565400Y8167623D01*
X2717800Y8167623D01*
X2717800Y7986776D01*
G37*
G36*
X2311400Y7986776D02*
G01*
X2311400Y8167623D01*
X2463800Y8167623D01*
X2463800Y7986776D01*
G37*
G36*
X6781800Y7986776D02*
G01*
X6781800Y8167623D01*
X6934200Y8167623D01*
X6934200Y7986776D01*
G37*
G36*
X6527800Y7986776D02*
G01*
X6527800Y8167623D01*
X6680200Y8167623D01*
X6680200Y7986776D01*
G37*
G36*
X6273800Y7986776D02*
G01*
X6273800Y8167623D01*
X6426200Y8167623D01*
X6426200Y7986776D01*
G37*
G36*
X6019800Y7986776D02*
G01*
X6019800Y8167623D01*
X6172200Y8167623D01*
X6172200Y7986776D01*
G37*
G36*
X5765800Y7986776D02*
G01*
X5765800Y8167623D01*
X5918200Y8167623D01*
X5918200Y7986776D01*
G37*
G36*
X5511800Y7986776D02*
G01*
X5511800Y8167623D01*
X5664200Y8167623D01*
X5664200Y7986776D01*
G37*
G36*
X5257800Y7986776D02*
G01*
X5257800Y8167623D01*
X5410200Y8167623D01*
X5410200Y7986776D01*
G37*
G36*
X5003800Y7986776D02*
G01*
X5003800Y8167623D01*
X5156200Y8167623D01*
X5156200Y7986776D01*
G37*
D23*
G01*
X5588000Y3251200D03*
G01*
X5842000Y3251200D03*
G01*
X6096000Y3251200D03*
G01*
X6350000Y3251200D03*
G01*
X6604000Y3251200D03*
G01*
X6858000Y3251200D03*
G01*
X3302000Y3251200D03*
G01*
X3556000Y3251200D03*
G01*
X3810000Y3251200D03*
G01*
X4064000Y3251200D03*
G01*
X4318000Y3251200D03*
G01*
X4572000Y3251200D03*
G01*
X4826000Y3251200D03*
G01*
X5080000Y3251200D03*
D24*
G01*
X4572000Y4066082D03*
D23*
G01*
X4572000Y3822700D03*
D24*
G01*
X4318000Y4063466D03*
D23*
G01*
X4318000Y3822700D03*
D24*
G01*
X4064000Y4061663D03*
D23*
G01*
X4064000Y3822700D03*
D24*
G01*
X2828163Y5524474D03*
G01*
X3082188Y5524474D03*
G01*
X3082010Y4762474D03*
G01*
X2827985Y4762474D03*
G01*
X7874025Y7302525D03*
G01*
X7620000Y7302500D03*
G01*
X4318000Y3492500D03*
G01*
X4064000Y3493617D03*
G01*
X3911600Y7810500D03*
G01*
X4165600Y7810500D03*
G01*
X4419600Y7810500D03*
G01*
X4673600Y7810500D03*
G01*
X5080000Y7810500D03*
G01*
X5334000Y7810500D03*
G01*
X5588000Y7810500D03*
D23*
G01*
X4064000Y3822700D03*
G01*
X4318000Y3822700D03*
G01*
X4572000Y3822700D03*
D24*
G01*
X8128000Y7302500D03*
G01*
X8128000Y7048500D03*
G01*
X8128000Y6794500D03*
G01*
X8128000Y6540500D03*
G01*
X7873974Y6794474D03*
G01*
X7873974Y7048474D03*
G01*
X7873974Y7302474D03*
G01*
X7873974Y6540474D03*
G01*
X8128000Y5016474D03*
G01*
X8128000Y5270474D03*
G01*
X8128000Y5524474D03*
G01*
X8128000Y4762474D03*
G01*
X7873974Y4762474D03*
G01*
X7874000Y5016474D03*
G01*
X7874000Y5270474D03*
G01*
X7873974Y5524474D03*
G01*
X6858000Y3492500D03*
G01*
X6604000Y3492500D03*
G01*
X5588000Y3492500D03*
G01*
X5842000Y3492500D03*
G01*
X6096000Y3492500D03*
G01*
X6350000Y3492500D03*
G01*
X4826000Y3505200D03*
G01*
X5080000Y3505200D03*
G01*
X3810000Y3492500D03*
G01*
X3556000Y3492500D03*
G01*
X3302000Y3492500D03*
G01*
X2387600Y7810500D03*
G01*
X2641600Y7810500D03*
G01*
X2895600Y7810500D03*
G01*
X3149600Y7810500D03*
G01*
X3403600Y7810500D03*
G01*
X3657600Y7810500D03*
G01*
X5842000Y7810500D03*
G01*
X6096000Y7810500D03*
G01*
X6858000Y7810500D03*
G01*
X6604000Y7810500D03*
G01*
X6350000Y7810500D03*
G01*
X1143000Y4000474D03*
G01*
X1143000Y7302474D03*
G01*
X1143000Y7048474D03*
G01*
X1143000Y6794474D03*
G01*
X1143000Y6540474D03*
G01*
X1143000Y6286474D03*
G01*
X1143000Y6032474D03*
G01*
X1143000Y5778474D03*
G01*
X1143000Y5524474D03*
G01*
X1143000Y5270474D03*
G01*
X1143000Y4508474D03*
G01*
X1143000Y5016474D03*
G01*
X1143000Y4762474D03*
G01*
X1143000Y4254474D03*
G01*
X762000Y4000474D03*
G01*
X762000Y4254474D03*
G01*
X762000Y4508474D03*
G01*
X762000Y4762474D03*
G01*
X762000Y5016474D03*
G01*
X762000Y5270474D03*
G01*
X762000Y7302474D03*
G01*
X762000Y7048474D03*
G01*
X762000Y6794474D03*
G01*
X762000Y6540474D03*
G01*
X762000Y6286474D03*
G01*
X762000Y6032474D03*
G01*
X762000Y5778474D03*
G01*
X762000Y5524474D03*
M02*
