G04 Layer: BottomSilkscreenLayer*
G04 EasyEDA v6.5.5, 2022-06-04 12:09:53*
G04 3e123cf2e83c460a892e92cee729170b,ccec236b37084310ae2d027740726036,10*
G04 Gerber Generator version 0.2*
G04 Scale: 100 percent, Rotated: No, Reflected: No *
G04 Dimensions in millimeters *
G04 leading zeros omitted , absolute positions ,4 integer and 5 decimal *
%FSLAX45Y45*%
%MOMM*%

%ADD10C,0.3000*%
%ADD18C,0.2032*%

%LPD*%
D18*
X836348Y8000989D02*
G01*
X1030310Y8000989D01*
X836348Y8000989D02*
G01*
X1030310Y7927098D01*
X836348Y7853210D02*
G01*
X1030310Y7927098D01*
X836348Y7853210D02*
G01*
X1030310Y7853210D01*
X4935618Y5386781D02*
G01*
X4940162Y5395871D01*
X4949253Y5404962D01*
X4958346Y5409509D01*
X4976528Y5409509D01*
X4985618Y5404962D01*
X4994709Y5395871D01*
X4999253Y5386781D01*
X5003800Y5373146D01*
X5003800Y5350418D01*
X4999253Y5336781D01*
X4994709Y5327690D01*
X4985618Y5318599D01*
X4976528Y5314053D01*
X4958346Y5314053D01*
X4949253Y5318599D01*
X4940162Y5327690D01*
X4935618Y5336781D01*
X4905618Y5409509D02*
G01*
X4905618Y5341327D01*
X4901072Y5327690D01*
X4891981Y5318599D01*
X4878346Y5314053D01*
X4869253Y5314053D01*
X4855618Y5318599D01*
X4846528Y5327690D01*
X4841981Y5341327D01*
X4841981Y5409509D01*
X4780163Y5409509D02*
G01*
X4780163Y5314053D01*
X4811981Y5409509D02*
G01*
X4748347Y5409509D01*
X4648347Y5409509D02*
G01*
X4648347Y5314053D01*
X4648347Y5314053D02*
G01*
X4593800Y5314053D01*
X4563800Y5409509D02*
G01*
X4563800Y5314053D01*
X4563800Y5409509D02*
G01*
X4504710Y5409509D01*
X4563800Y5364053D02*
G01*
X4527438Y5364053D01*
X4563800Y5314053D02*
G01*
X4504710Y5314053D01*
X4474710Y5409509D02*
G01*
X4474710Y5314053D01*
X4474710Y5409509D02*
G01*
X4442891Y5409509D01*
X4429254Y5404962D01*
X4420163Y5395871D01*
X4415619Y5386781D01*
X4411073Y5373146D01*
X4411073Y5350418D01*
X4415619Y5336781D01*
X4420163Y5327690D01*
X4429254Y5318599D01*
X4442891Y5314053D01*
X4474710Y5314053D01*
X4279254Y5409509D02*
G01*
X4279254Y5314053D01*
X4311073Y5409509D02*
G01*
X4247438Y5409509D01*
X4217438Y5377690D02*
G01*
X4217438Y5314053D01*
X4217438Y5350418D02*
G01*
X4212892Y5364053D01*
X4203801Y5373146D01*
X4194710Y5377690D01*
X4181073Y5377690D01*
X4096529Y5377690D02*
G01*
X4096529Y5314053D01*
X4096529Y5364053D02*
G01*
X4105620Y5373146D01*
X4114711Y5377690D01*
X4128348Y5377690D01*
X4137439Y5373146D01*
X4146529Y5364053D01*
X4151073Y5350418D01*
X4151073Y5341327D01*
X4146529Y5327690D01*
X4137439Y5318599D01*
X4128348Y5314053D01*
X4114711Y5314053D01*
X4105620Y5318599D01*
X4096529Y5327690D01*
X4011983Y5364053D02*
G01*
X4021074Y5373146D01*
X4030164Y5377690D01*
X4043801Y5377690D01*
X4052892Y5373146D01*
X4061983Y5364053D01*
X4066529Y5350418D01*
X4066529Y5341327D01*
X4061983Y5327690D01*
X4052892Y5318599D01*
X4043801Y5314053D01*
X4030164Y5314053D01*
X4021074Y5318599D01*
X4011983Y5327690D01*
X3981983Y5350418D02*
G01*
X3927439Y5350418D01*
X3927439Y5359509D01*
X3931983Y5368599D01*
X3936530Y5373146D01*
X3945620Y5377690D01*
X3959255Y5377690D01*
X3968348Y5373146D01*
X3977439Y5364053D01*
X3981983Y5350418D01*
X3981983Y5341327D01*
X3977439Y5327690D01*
X3968348Y5318599D01*
X3959255Y5314053D01*
X3945620Y5314053D01*
X3936530Y5318599D01*
X3927439Y5327690D01*
X3757439Y5409509D02*
G01*
X3757439Y5314053D01*
X3757439Y5364053D02*
G01*
X3748349Y5373146D01*
X3739255Y5377690D01*
X3725621Y5377690D01*
X3716530Y5373146D01*
X3707439Y5364053D01*
X3702893Y5350418D01*
X3702893Y5341327D01*
X3707439Y5327690D01*
X3716530Y5318599D01*
X3725621Y5314053D01*
X3739255Y5314053D01*
X3748349Y5318599D01*
X3757439Y5327690D01*
X3672893Y5350418D02*
G01*
X3618349Y5350418D01*
X3618349Y5359509D01*
X3622893Y5368599D01*
X3627440Y5373146D01*
X3636530Y5377690D01*
X3650165Y5377690D01*
X3659256Y5373146D01*
X3668349Y5364053D01*
X3672893Y5350418D01*
X3672893Y5341327D01*
X3668349Y5327690D01*
X3659256Y5318599D01*
X3650165Y5314053D01*
X3636530Y5314053D01*
X3627440Y5318599D01*
X3618349Y5327690D01*
X3574712Y5409509D02*
G01*
X3574712Y5332237D01*
X3570165Y5318599D01*
X3561074Y5314053D01*
X3551984Y5314053D01*
X3588349Y5377690D02*
G01*
X3556530Y5377690D01*
X3521984Y5377690D02*
G01*
X3503802Y5314053D01*
X3485621Y5377690D02*
G01*
X3503802Y5314053D01*
X3485621Y5377690D02*
G01*
X3467440Y5314053D01*
X3449256Y5377690D02*
G01*
X3467440Y5314053D01*
X3419256Y5350418D02*
G01*
X3364712Y5350418D01*
X3364712Y5359509D01*
X3369256Y5368599D01*
X3373803Y5373146D01*
X3382893Y5377690D01*
X3396531Y5377690D01*
X3405621Y5373146D01*
X3414712Y5364053D01*
X3419256Y5350418D01*
X3419256Y5341327D01*
X3414712Y5327690D01*
X3405621Y5318599D01*
X3396531Y5314053D01*
X3382893Y5314053D01*
X3373803Y5318599D01*
X3364712Y5327690D01*
X3334712Y5350418D02*
G01*
X3280166Y5350418D01*
X3280166Y5359509D01*
X3284712Y5368599D01*
X3289256Y5373146D01*
X3298350Y5377690D01*
X3311984Y5377690D01*
X3321075Y5373146D01*
X3330166Y5364053D01*
X3334712Y5350418D01*
X3334712Y5341327D01*
X3330166Y5327690D01*
X3321075Y5318599D01*
X3311984Y5314053D01*
X3298350Y5314053D01*
X3289256Y5318599D01*
X3280166Y5327690D01*
X3250166Y5377690D02*
G01*
X3250166Y5314053D01*
X3250166Y5359509D02*
G01*
X3236531Y5373146D01*
X3227440Y5377690D01*
X3213803Y5377690D01*
X3204712Y5373146D01*
X3200166Y5359509D01*
X3200166Y5314053D01*
X3100166Y5377690D02*
G01*
X3100166Y5282237D01*
X3100166Y5364053D02*
G01*
X3091075Y5373146D01*
X3081985Y5377690D01*
X3068350Y5377690D01*
X3059257Y5373146D01*
X3050166Y5364053D01*
X3045622Y5350418D01*
X3045622Y5341327D01*
X3050166Y5327690D01*
X3059257Y5318599D01*
X3068350Y5314053D01*
X3081985Y5314053D01*
X3091075Y5318599D01*
X3100166Y5327690D01*
X2961076Y5377690D02*
G01*
X2961076Y5314053D01*
X2961076Y5364053D02*
G01*
X2970166Y5373146D01*
X2979257Y5377690D01*
X2992894Y5377690D01*
X3001985Y5373146D01*
X3011076Y5364053D01*
X3015622Y5350418D01*
X3015622Y5341327D01*
X3011076Y5327690D01*
X3001985Y5318599D01*
X2992894Y5314053D01*
X2979257Y5314053D01*
X2970166Y5318599D01*
X2961076Y5327690D01*
X2876532Y5409509D02*
G01*
X2876532Y5314053D01*
X2876532Y5364053D02*
G01*
X2885622Y5373146D01*
X2894713Y5377690D01*
X2908350Y5377690D01*
X2917441Y5373146D01*
X2926532Y5364053D01*
X2931076Y5350418D01*
X2931076Y5341327D01*
X2926532Y5327690D01*
X2917441Y5318599D01*
X2908350Y5314053D01*
X2894713Y5314053D01*
X2885622Y5318599D01*
X2876532Y5327690D01*
X2796532Y5364053D02*
G01*
X2801076Y5373146D01*
X2814713Y5377690D01*
X2828350Y5377690D01*
X2841985Y5373146D01*
X2846532Y5364053D01*
X2841985Y5354962D01*
X2832895Y5350418D01*
X2810167Y5345871D01*
X2801076Y5341327D01*
X2796532Y5332237D01*
X2796532Y5327690D01*
X2801076Y5318599D01*
X2814713Y5314053D01*
X2828350Y5314053D01*
X2841985Y5318599D01*
X2846532Y5327690D01*
X4912890Y5167000D02*
G01*
X4912890Y5171546D01*
X4917437Y5176090D01*
X4921981Y5176090D01*
X4926528Y5171546D01*
X4931072Y5162453D01*
X4940162Y5139728D01*
X4949253Y5126090D01*
X4958346Y5117000D01*
X4967437Y5112453D01*
X4985618Y5112453D01*
X4994709Y5117000D01*
X4999253Y5121546D01*
X5003800Y5130637D01*
X5003800Y5139728D01*
X4999253Y5148818D01*
X4994709Y5153362D01*
X4962890Y5171546D01*
X4958346Y5176090D01*
X4953800Y5185181D01*
X4953800Y5194272D01*
X4958346Y5203362D01*
X4967437Y5207909D01*
X4976528Y5203362D01*
X4981072Y5194272D01*
X4981072Y5185181D01*
X4976528Y5171546D01*
X4967437Y5157909D01*
X4944709Y5126090D01*
X4935618Y5117000D01*
X4926528Y5112453D01*
X4917437Y5112453D01*
X4912890Y5117000D01*
X4912890Y5121546D01*
X4812891Y5207909D02*
G01*
X4790163Y5112453D01*
X4767437Y5207909D02*
G01*
X4790163Y5112453D01*
X4767437Y5207909D02*
G01*
X4744709Y5112453D01*
X4721981Y5207909D02*
G01*
X4744709Y5112453D01*
X4691981Y5207909D02*
G01*
X4691981Y5112453D01*
X4661982Y5207909D02*
G01*
X4661982Y5112453D01*
X4661982Y5207909D02*
G01*
X4621072Y5207909D01*
X4607438Y5203362D01*
X4602891Y5198818D01*
X4598347Y5189728D01*
X4598347Y5180637D01*
X4602891Y5171546D01*
X4607438Y5167000D01*
X4621072Y5162453D01*
X4661982Y5162453D01*
X4630163Y5162453D02*
G01*
X4598347Y5112453D01*
X4568347Y5207909D02*
G01*
X4568347Y5112453D01*
X4568347Y5207909D02*
G01*
X4509254Y5207909D01*
X4568347Y5162453D02*
G01*
X4531982Y5162453D01*
X4568347Y5112453D02*
G01*
X4509254Y5112453D01*
X4409254Y5207909D02*
G01*
X4409254Y5112453D01*
X4409254Y5112453D02*
G01*
X4354710Y5112453D01*
X4324710Y5207909D02*
G01*
X4324710Y5112453D01*
X4324710Y5207909D02*
G01*
X4265620Y5207909D01*
X4324710Y5162453D02*
G01*
X4288348Y5162453D01*
X4324710Y5112453D02*
G01*
X4265620Y5112453D01*
X4235620Y5207909D02*
G01*
X4235620Y5112453D01*
X4235620Y5207909D02*
G01*
X4203801Y5207909D01*
X4190164Y5203362D01*
X4181073Y5194272D01*
X4176529Y5185181D01*
X4171983Y5171546D01*
X4171983Y5148818D01*
X4176529Y5135181D01*
X4181073Y5126090D01*
X4190164Y5117000D01*
X4203801Y5112453D01*
X4235620Y5112453D01*
X4058348Y5207909D02*
G01*
X4058348Y5130637D01*
X4053801Y5117000D01*
X4044711Y5112453D01*
X4035620Y5112453D01*
X4071983Y5176090D02*
G01*
X4040164Y5176090D01*
X3982892Y5176090D02*
G01*
X3991983Y5171546D01*
X4001074Y5162453D01*
X4005620Y5148818D01*
X4005620Y5139728D01*
X4001074Y5126090D01*
X3991983Y5117000D01*
X3982892Y5112453D01*
X3969255Y5112453D01*
X3960164Y5117000D01*
X3951074Y5126090D01*
X3946530Y5139728D01*
X3946530Y5148818D01*
X3951074Y5162453D01*
X3960164Y5171546D01*
X3969255Y5176090D01*
X3982892Y5176090D01*
X3846530Y5207909D02*
G01*
X3846530Y5112453D01*
X3846530Y5207909D02*
G01*
X3805621Y5207909D01*
X3791983Y5203362D01*
X3787439Y5198818D01*
X3782893Y5189728D01*
X3782893Y5176090D01*
X3787439Y5167000D01*
X3791983Y5162453D01*
X3805621Y5157909D01*
X3846530Y5157909D01*
X3752893Y5207909D02*
G01*
X3730165Y5112453D01*
X3707439Y5207909D02*
G01*
X3730165Y5112453D01*
X3707439Y5207909D02*
G01*
X3684711Y5112453D01*
X3661984Y5207909D02*
G01*
X3684711Y5112453D01*
X3631984Y5207909D02*
G01*
X3631984Y5112453D01*
X3631984Y5207909D02*
G01*
X3595621Y5112453D01*
X3559256Y5207909D02*
G01*
X3595621Y5112453D01*
X3559256Y5207909D02*
G01*
X3559256Y5112453D01*
X3391075Y5185181D02*
G01*
X3395621Y5194272D01*
X3404712Y5203362D01*
X3413803Y5207909D01*
X3431984Y5207909D01*
X3441075Y5203362D01*
X3450165Y5194272D01*
X3454712Y5185181D01*
X3459256Y5171546D01*
X3459256Y5148818D01*
X3454712Y5135181D01*
X3450165Y5126090D01*
X3441075Y5117000D01*
X3431984Y5112453D01*
X3413803Y5112453D01*
X3404712Y5117000D01*
X3395621Y5126090D01*
X3391075Y5135181D01*
X3391075Y5148818D01*
X3413803Y5148818D02*
G01*
X3391075Y5148818D01*
X3361075Y5207909D02*
G01*
X3361075Y5112453D01*
X3361075Y5207909D02*
G01*
X3320166Y5207909D01*
X3306531Y5203362D01*
X3301984Y5198818D01*
X3297440Y5189728D01*
X3297440Y5176090D01*
X3301984Y5167000D01*
X3306531Y5162453D01*
X3320166Y5157909D01*
X3361075Y5157909D01*
X3267440Y5207909D02*
G01*
X3267440Y5112453D01*
X3210166Y5207909D02*
G01*
X3219256Y5203362D01*
X3228350Y5194272D01*
X3232894Y5185181D01*
X3237440Y5171546D01*
X3237440Y5148818D01*
X3232894Y5135181D01*
X3228350Y5126090D01*
X3219256Y5117000D01*
X3210166Y5112453D01*
X3191984Y5112453D01*
X3182894Y5117000D01*
X3173803Y5126090D01*
X3169257Y5135181D01*
X3164713Y5148818D01*
X3164713Y5171546D01*
X3169257Y5185181D01*
X3173803Y5194272D01*
X3182894Y5203362D01*
X3191984Y5207909D01*
X3210166Y5207909D01*
X3134713Y5185181D02*
G01*
X3134713Y5189728D01*
X3130166Y5198818D01*
X3125622Y5203362D01*
X3116531Y5207909D01*
X3098350Y5207909D01*
X3089257Y5203362D01*
X3084713Y5198818D01*
X3080166Y5189728D01*
X3080166Y5180637D01*
X3084713Y5171546D01*
X3089257Y5167000D01*
X3107441Y5157909D01*
X3107441Y5144272D01*
X3107441Y5121546D02*
G01*
X3111985Y5117000D01*
X3107441Y5112453D01*
X3102894Y5117000D01*
X3107441Y5121546D01*
X3050166Y5185181D02*
G01*
X3050166Y5189728D01*
X3045622Y5198818D01*
X3041075Y5203362D01*
X3031985Y5207909D01*
X3013803Y5207909D01*
X3004713Y5203362D01*
X3000166Y5198818D01*
X2995622Y5189728D01*
X2995622Y5180637D01*
X3000166Y5171546D01*
X3004713Y5167000D01*
X3022894Y5157909D01*
X3022894Y5144272D01*
X3022894Y5121546D02*
G01*
X3027441Y5117000D01*
X3022894Y5112453D01*
X3018350Y5117000D01*
X3022894Y5121546D01*
X2859257Y5207909D02*
G01*
X2868350Y5207909D01*
X2877441Y5203362D01*
X2881985Y5189728D01*
X2881985Y5112453D01*
X2895622Y5176090D02*
G01*
X2863804Y5176090D01*
X2806532Y5176090D02*
G01*
X2815623Y5171546D01*
X2824713Y5162453D01*
X2829257Y5148818D01*
X2829257Y5139728D01*
X2824713Y5126090D01*
X2815623Y5117000D01*
X2806532Y5112453D01*
X2792895Y5112453D01*
X2783804Y5117000D01*
X2774713Y5126090D01*
X2770167Y5139728D01*
X2770167Y5148818D01*
X2774713Y5162453D01*
X2783804Y5171546D01*
X2792895Y5176090D01*
X2806532Y5176090D01*
X2740167Y5176090D02*
G01*
X2740167Y5112453D01*
X2740167Y5148818D02*
G01*
X2735623Y5162453D01*
X2726532Y5171546D01*
X2717441Y5176090D01*
X2703804Y5176090D01*
X2603804Y5207909D02*
G01*
X2603804Y5112453D01*
X2603804Y5162453D02*
G01*
X2594714Y5171546D01*
X2585623Y5176090D01*
X2571986Y5176090D01*
X2562895Y5171546D01*
X2553804Y5162453D01*
X2549258Y5148818D01*
X2549258Y5139728D01*
X2553804Y5126090D01*
X2562895Y5117000D01*
X2571986Y5112453D01*
X2585623Y5112453D01*
X2594714Y5117000D01*
X2603804Y5126090D01*
X2464714Y5176090D02*
G01*
X2464714Y5112453D01*
X2464714Y5162453D02*
G01*
X2473805Y5171546D01*
X2482895Y5176090D01*
X2496532Y5176090D01*
X2505623Y5171546D01*
X2514714Y5162453D01*
X2519258Y5148818D01*
X2519258Y5139728D01*
X2514714Y5126090D01*
X2505623Y5117000D01*
X2496532Y5112453D01*
X2482895Y5112453D01*
X2473805Y5117000D01*
X2464714Y5126090D01*
X2380167Y5162453D02*
G01*
X2389258Y5171546D01*
X2398351Y5176090D01*
X2411986Y5176090D01*
X2421077Y5171546D01*
X2430167Y5162453D01*
X2434714Y5148818D01*
X2434714Y5139728D01*
X2430167Y5126090D01*
X2421077Y5117000D01*
X2411986Y5112453D01*
X2398351Y5112453D01*
X2389258Y5117000D01*
X2380167Y5126090D01*
X2350168Y5207909D02*
G01*
X2350168Y5112453D01*
X2304714Y5176090D02*
G01*
X2350168Y5130637D01*
X2331986Y5148818D02*
G01*
X2300168Y5112453D01*
X2270168Y5207909D02*
G01*
X2270168Y5112453D01*
X2240168Y5207909D02*
G01*
X2235624Y5203362D01*
X2231077Y5207909D01*
X2235624Y5212453D01*
X2240168Y5207909D01*
X2235624Y5176090D02*
G01*
X2235624Y5112453D01*
X2146533Y5176090D02*
G01*
X2146533Y5103362D01*
X2151077Y5089728D01*
X2155624Y5085181D01*
X2164715Y5080637D01*
X2178352Y5080637D01*
X2187442Y5085181D01*
X2146533Y5162453D02*
G01*
X2155624Y5171546D01*
X2164715Y5176090D01*
X2178352Y5176090D01*
X2187442Y5171546D01*
X2196533Y5162453D01*
X2201077Y5148818D01*
X2201077Y5139728D01*
X2196533Y5126090D01*
X2187442Y5117000D01*
X2178352Y5112453D01*
X2164715Y5112453D01*
X2155624Y5117000D01*
X2146533Y5126090D01*
X2102896Y5207909D02*
G01*
X2102896Y5130637D01*
X2098352Y5117000D01*
X2089259Y5112453D01*
X2080168Y5112453D01*
X2116533Y5176090D02*
G01*
X2084715Y5176090D01*
X2050168Y5207909D02*
G01*
X2050168Y5112453D01*
X2050168Y5157909D02*
G01*
X2036533Y5171546D01*
X2027443Y5176090D01*
X2013805Y5176090D01*
X2004715Y5171546D01*
X2000168Y5157909D01*
X2000168Y5112453D01*
X1845624Y5162453D02*
G01*
X1854715Y5171546D01*
X1863806Y5176090D01*
X1877443Y5176090D01*
X1886534Y5171546D01*
X1895624Y5162453D01*
X1900168Y5148818D01*
X1900168Y5139728D01*
X1895624Y5126090D01*
X1886534Y5117000D01*
X1877443Y5112453D01*
X1863806Y5112453D01*
X1854715Y5117000D01*
X1845624Y5126090D01*
X1792897Y5176090D02*
G01*
X1801987Y5171546D01*
X1811078Y5162453D01*
X1815625Y5148818D01*
X1815625Y5139728D01*
X1811078Y5126090D01*
X1801987Y5117000D01*
X1792897Y5112453D01*
X1779259Y5112453D01*
X1770169Y5117000D01*
X1761078Y5126090D01*
X1756534Y5139728D01*
X1756534Y5148818D01*
X1761078Y5162453D01*
X1770169Y5171546D01*
X1779259Y5176090D01*
X1792897Y5176090D01*
X1726534Y5176090D02*
G01*
X1726534Y5112453D01*
X1726534Y5157909D02*
G01*
X1712897Y5171546D01*
X1703806Y5176090D01*
X1690169Y5176090D01*
X1681078Y5171546D01*
X1676534Y5157909D01*
X1676534Y5112453D01*
X1632897Y5207909D02*
G01*
X1632897Y5130637D01*
X1628353Y5117000D01*
X1619260Y5112453D01*
X1610169Y5112453D01*
X1646534Y5176090D02*
G01*
X1614716Y5176090D01*
X1580169Y5176090D02*
G01*
X1580169Y5112453D01*
X1580169Y5148818D02*
G01*
X1575625Y5162453D01*
X1566534Y5171546D01*
X1557444Y5176090D01*
X1543806Y5176090D01*
X1491079Y5176090D02*
G01*
X1500169Y5171546D01*
X1509260Y5162453D01*
X1513806Y5148818D01*
X1513806Y5139728D01*
X1509260Y5126090D01*
X1500169Y5117000D01*
X1491079Y5112453D01*
X1477444Y5112453D01*
X1468353Y5117000D01*
X1459260Y5126090D01*
X1454716Y5139728D01*
X1454716Y5148818D01*
X1459260Y5162453D01*
X1468353Y5171546D01*
X1477444Y5176090D01*
X1491079Y5176090D01*
X1424716Y5207909D02*
G01*
X1424716Y5112453D01*
X1394716Y5185181D02*
G01*
X1394716Y5189728D01*
X1390169Y5198818D01*
X1385625Y5203362D01*
X1376535Y5207909D01*
X1358353Y5207909D01*
X1349260Y5203362D01*
X1344716Y5198818D01*
X1340170Y5189728D01*
X1340170Y5180637D01*
X1344716Y5171546D01*
X1349260Y5167000D01*
X1367444Y5157909D01*
X1367444Y5144272D01*
X1367444Y5121546D02*
G01*
X1371988Y5117000D01*
X1367444Y5112453D01*
X1362897Y5117000D01*
X1367444Y5121546D01*
D10*
X2917952Y6260337D02*
G01*
X2904490Y6267195D01*
X2890774Y6280912D01*
X2883915Y6294628D01*
X2883915Y6321805D01*
X2890774Y6335521D01*
X2904490Y6348984D01*
X2917952Y6355842D01*
X2938525Y6362700D01*
X2972561Y6362700D01*
X2993136Y6355842D01*
X3006597Y6348984D01*
X3020313Y6335521D01*
X3027172Y6321805D01*
X3027172Y6294628D01*
X3020313Y6280912D01*
X3006597Y6267195D01*
X2993136Y6260337D01*
X2883915Y6215379D02*
G01*
X2986277Y6215379D01*
X3006597Y6208521D01*
X3020313Y6195060D01*
X3027172Y6174486D01*
X3027172Y6160770D01*
X3020313Y6140450D01*
X3006597Y6126734D01*
X2986277Y6119876D01*
X2883915Y6119876D01*
X2883915Y6027165D02*
G01*
X3027172Y6027165D01*
X2883915Y6074918D02*
G01*
X2883915Y5979413D01*
X2945384Y5934455D02*
G01*
X2945384Y5811773D01*
X2986277Y5934455D02*
G01*
X2986277Y5811773D01*
X2904490Y5766815D02*
G01*
X2965704Y5657595D01*
X3027172Y5766815D01*
M02*
