G04 Layer: BottomLayer*
G04 EasyEDA v6.5.5, 2022-06-04 12:09:53*
G04 3e123cf2e83c460a892e92cee729170b,ccec236b37084310ae2d027740726036,10*
G04 Gerber Generator version 0.2*
G04 Scale: 100 percent, Rotated: No, Reflected: No *
G04 Dimensions in millimeters *
G04 leading zeros omitted , absolute positions ,4 integer and 5 decimal *
%FSLAX45Y45*%
%MOMM*%

%ADD12C,0.6000*%
%ADD13C,1.0000*%
%ADD14R,1.4224X1.7069*%
%ADD15C,1.5240*%

%LPD*%
G36*
X4541977Y3998061D02*
G01*
X4500880Y3908044D01*
X4643120Y3908044D01*
X4602022Y3998061D01*
G37*
G36*
X4287977Y3998061D02*
G01*
X4246880Y3908044D01*
X4389120Y3908044D01*
X4348022Y3998061D01*
G37*
G36*
X4033977Y3998061D02*
G01*
X3992879Y3908044D01*
X4135120Y3908044D01*
X4094022Y3998061D01*
G37*
G36*
X4033977Y3998061D02*
G01*
X3992879Y3908044D01*
X4135120Y3908044D01*
X4094022Y3998061D01*
G37*
G36*
X4287977Y3998061D02*
G01*
X4246880Y3908044D01*
X4389120Y3908044D01*
X4348022Y3998061D01*
G37*
G36*
X4541977Y3998061D02*
G01*
X4500880Y3908044D01*
X4643120Y3908044D01*
X4602022Y3998061D01*
G37*
G36*
X5049977Y3426561D02*
G01*
X5008880Y3336544D01*
X5151120Y3336544D01*
X5109972Y3426561D01*
G37*
G36*
X4795977Y3426561D02*
G01*
X4754880Y3336544D01*
X4897120Y3336544D01*
X4855972Y3426561D01*
G37*
G36*
X4287977Y3426561D02*
G01*
X4246880Y3336544D01*
X4389120Y3336544D01*
X4348022Y3426561D01*
G37*
G36*
X4033977Y3426561D02*
G01*
X3992879Y3336544D01*
X4135120Y3336544D01*
X4094022Y3426561D01*
G37*
G36*
X3779977Y3426561D02*
G01*
X3738879Y3336544D01*
X3881120Y3336544D01*
X3840022Y3426561D01*
G37*
G36*
X3525977Y3426561D02*
G01*
X3484879Y3336544D01*
X3627120Y3336544D01*
X3586022Y3426561D01*
G37*
G36*
X3271977Y3426561D02*
G01*
X3230880Y3336544D01*
X3373120Y3336544D01*
X3332022Y3426561D01*
G37*
G36*
X6827977Y3426561D02*
G01*
X6786880Y3336544D01*
X6929120Y3336544D01*
X6888022Y3426561D01*
G37*
G36*
X6573977Y3426561D02*
G01*
X6532880Y3336544D01*
X6675120Y3336544D01*
X6634022Y3426561D01*
G37*
G36*
X6319977Y3426561D02*
G01*
X6278880Y3336544D01*
X6421120Y3336544D01*
X6380022Y3426561D01*
G37*
G36*
X6065977Y3426561D02*
G01*
X6024880Y3336544D01*
X6167120Y3336544D01*
X6126022Y3426561D01*
G37*
G36*
X5811977Y3426561D02*
G01*
X5770880Y3336544D01*
X5913120Y3336544D01*
X5872022Y3426561D01*
G37*
G36*
X5557977Y3426561D02*
G01*
X5516880Y3336544D01*
X5659120Y3336544D01*
X5618022Y3426561D01*
G37*
G36*
X5008880Y7991856D02*
G01*
X5049977Y7901838D01*
X5110022Y7901838D01*
X5151120Y7991856D01*
G37*
G36*
X5262880Y7991856D02*
G01*
X5303977Y7901838D01*
X5364022Y7901838D01*
X5405120Y7991856D01*
G37*
G36*
X5516880Y7991856D02*
G01*
X5557977Y7901838D01*
X5618022Y7901838D01*
X5659120Y7991856D01*
G37*
G36*
X5770880Y7991856D02*
G01*
X5811977Y7901838D01*
X5871972Y7901838D01*
X5913069Y7991856D01*
G37*
G36*
X6024880Y7991856D02*
G01*
X6065977Y7901838D01*
X6125972Y7901838D01*
X6167069Y7991856D01*
G37*
G36*
X6278880Y7991805D02*
G01*
X6319977Y7901838D01*
X6379972Y7901838D01*
X6421069Y7991805D01*
G37*
G36*
X6532880Y7991805D02*
G01*
X6573977Y7901838D01*
X6633972Y7901838D01*
X6675069Y7991805D01*
G37*
G36*
X6786880Y7991805D02*
G01*
X6827977Y7901838D01*
X6887972Y7901838D01*
X6929069Y7991805D01*
G37*
G36*
X2316480Y7991805D02*
G01*
X2357577Y7901838D01*
X2417622Y7901838D01*
X2458720Y7991805D01*
G37*
G36*
X2570480Y7991805D02*
G01*
X2611577Y7901838D01*
X2671622Y7901838D01*
X2712720Y7991805D01*
G37*
G36*
X2824480Y7991805D02*
G01*
X2865577Y7901838D01*
X2925622Y7901838D01*
X2966720Y7991805D01*
G37*
G36*
X3078480Y7991805D02*
G01*
X3119577Y7901838D01*
X3179622Y7901838D01*
X3220720Y7991805D01*
G37*
G36*
X3332479Y7991805D02*
G01*
X3373577Y7901838D01*
X3433622Y7901838D01*
X3474720Y7991805D01*
G37*
G36*
X3586479Y7991805D02*
G01*
X3627577Y7901838D01*
X3687622Y7901838D01*
X3728720Y7991805D01*
G37*
G36*
X3840479Y7991805D02*
G01*
X3881577Y7901838D01*
X3941622Y7901838D01*
X3982720Y7991805D01*
G37*
G36*
X4094479Y7991805D02*
G01*
X4135577Y7901838D01*
X4195622Y7901838D01*
X4236720Y7991805D01*
G37*
G36*
X4348480Y7991805D02*
G01*
X4389577Y7901838D01*
X4449622Y7901838D01*
X4490720Y7991805D01*
G37*
G36*
X4602480Y7991856D02*
G01*
X4643577Y7901838D01*
X4703622Y7901838D01*
X4744720Y7991856D01*
G37*
G36*
X6129070Y4799990D02*
G01*
X6129070Y4725009D01*
X6164072Y4732477D01*
X6164072Y4792522D01*
G37*
G36*
X4789271Y7270242D02*
G01*
X4795977Y7235088D01*
X4856022Y7233767D01*
X4864252Y7268565D01*
G37*
G36*
X4795977Y4132072D02*
G01*
X4788509Y4097070D01*
X4863490Y4097070D01*
X4856022Y4132072D01*
G37*
G36*
X3525977Y4055872D02*
G01*
X3518509Y4020870D01*
X3593490Y4020870D01*
X3586022Y4055872D01*
G37*
G36*
X3881577Y6100572D02*
G01*
X3874109Y6065570D01*
X3949090Y6065570D01*
X3941622Y6100572D01*
G37*
G36*
X4026509Y6761429D02*
G01*
X4033977Y6726428D01*
X4094022Y6726428D01*
X4101490Y6761429D01*
G37*
G36*
X3518509Y5491429D02*
G01*
X3525977Y5456428D01*
X3586022Y5456428D01*
X3593490Y5491429D01*
G37*
G36*
X3772509Y6494729D02*
G01*
X3779977Y6459728D01*
X3840022Y6459728D01*
X3847490Y6494729D01*
G37*
G36*
X3119577Y7116572D02*
G01*
X3112109Y7081570D01*
X3187090Y7081570D01*
X3179622Y7116572D01*
G37*
G36*
X3373577Y5846572D02*
G01*
X3366109Y5811570D01*
X3441090Y5811570D01*
X3433622Y5846572D01*
G37*
G36*
X6560870Y7085990D02*
G01*
X6560870Y7010958D01*
X6595872Y7018477D01*
X6595872Y7078472D01*
G37*
G36*
X4514850Y4015689D02*
G01*
X4541977Y3962349D01*
X4602022Y3962349D01*
X4629150Y4015689D01*
G37*
G36*
X4260850Y4013047D02*
G01*
X4287977Y3959707D01*
X4348022Y3959707D01*
X4375150Y4013047D01*
G37*
G36*
X4033977Y4165396D02*
G01*
X4006850Y4112056D01*
X4121150Y4112056D01*
X4094022Y4165396D01*
G37*
G36*
X4006850Y4011269D02*
G01*
X4033977Y3957929D01*
X4094022Y3957929D01*
X4121150Y4011269D01*
G37*
G36*
X7823606Y7359650D02*
G01*
X7770266Y7332522D01*
X7770317Y7272477D01*
X7823657Y7245350D01*
G37*
G36*
X7924444Y7359650D02*
G01*
X7924393Y7245350D01*
X7977784Y7272477D01*
X7977784Y7332522D01*
G37*
G36*
X7670393Y7359650D02*
G01*
X7670393Y7245350D01*
X7723733Y7272477D01*
X7723733Y7332522D01*
G37*
G36*
X4260850Y3442106D02*
G01*
X4287977Y3388766D01*
X4348022Y3388766D01*
X4375150Y3442106D01*
G37*
G36*
X4006850Y3443224D02*
G01*
X4033977Y3389884D01*
X4094022Y3389884D01*
X4121150Y3443224D01*
G37*
G36*
X3881577Y7914233D02*
G01*
X3854450Y7860893D01*
X3968750Y7860893D01*
X3941622Y7914233D01*
G37*
G36*
X3854450Y7760106D02*
G01*
X3881577Y7706766D01*
X3941622Y7706766D01*
X3968750Y7760106D01*
G37*
G36*
X4135577Y7914233D02*
G01*
X4108450Y7860893D01*
X4222750Y7860893D01*
X4195622Y7914233D01*
G37*
G36*
X4389577Y7914233D02*
G01*
X4362450Y7860893D01*
X4476750Y7860893D01*
X4449622Y7914233D01*
G37*
G36*
X4643577Y7914233D02*
G01*
X4616450Y7860893D01*
X4730750Y7860893D01*
X4703622Y7914233D01*
G37*
G36*
X5049977Y7914233D02*
G01*
X5022850Y7860893D01*
X5137150Y7860893D01*
X5110022Y7914233D01*
G37*
G36*
X5303977Y7914233D02*
G01*
X5276850Y7860893D01*
X5391150Y7860893D01*
X5364022Y7914233D01*
G37*
G36*
X5557977Y7914233D02*
G01*
X5530850Y7860893D01*
X5645150Y7860893D01*
X5618022Y7914233D01*
G37*
G36*
X8077606Y7359650D02*
G01*
X8024266Y7332522D01*
X8024266Y7272477D01*
X8077606Y7245350D01*
G37*
G36*
X8077606Y7105650D02*
G01*
X8024266Y7078472D01*
X8024266Y7018477D01*
X8077606Y6991350D01*
G37*
G36*
X8077606Y7105650D02*
G01*
X8024266Y7078472D01*
X8024266Y7018477D01*
X8077606Y6991350D01*
G37*
G36*
X8178393Y7105650D02*
G01*
X8178393Y6991350D01*
X8231733Y7018477D01*
X8231733Y7078472D01*
G37*
G36*
X8077606Y6851650D02*
G01*
X8024266Y6824472D01*
X8024266Y6764477D01*
X8077606Y6737350D01*
G37*
G36*
X8077606Y6597650D02*
G01*
X8024266Y6570472D01*
X8024266Y6510477D01*
X8077606Y6483350D01*
G37*
G36*
X7823606Y6851650D02*
G01*
X7770215Y6824472D01*
X7770215Y6764477D01*
X7823555Y6737350D01*
G37*
G36*
X7924342Y6851650D02*
G01*
X7924393Y6737350D01*
X7977733Y6764477D01*
X7977733Y6824472D01*
G37*
G36*
X7823555Y7105599D02*
G01*
X7770215Y7078472D01*
X7770215Y7018477D01*
X7823555Y6991299D01*
G37*
G36*
X7924393Y7105599D02*
G01*
X7924393Y6991299D01*
X7977733Y7018477D01*
X7977733Y7078472D01*
G37*
G36*
X7924342Y7105650D02*
G01*
X7924393Y6991350D01*
X7977733Y7018477D01*
X7977733Y7078472D01*
G37*
G36*
X7823606Y7359650D02*
G01*
X7770215Y7332522D01*
X7770215Y7272477D01*
X7823555Y7245350D01*
G37*
G36*
X7924342Y7359650D02*
G01*
X7924393Y7245350D01*
X7977733Y7272477D01*
X7977733Y7332522D01*
G37*
G36*
X7924393Y6597599D02*
G01*
X7924393Y6483299D01*
X7977733Y6510477D01*
X7977733Y6570472D01*
G37*
G36*
X8077606Y5073599D02*
G01*
X8024266Y5046472D01*
X8024266Y4986477D01*
X8077606Y4959299D01*
G37*
G36*
X8178393Y5327650D02*
G01*
X8178393Y5213350D01*
X8231733Y5240477D01*
X8231733Y5300472D01*
G37*
G36*
X8077606Y5327650D02*
G01*
X8024266Y5300472D01*
X8024266Y5240477D01*
X8077606Y5213350D01*
G37*
G36*
X8077606Y5581650D02*
G01*
X8024266Y5554472D01*
X8024266Y5494477D01*
X8077606Y5467350D01*
G37*
G36*
X8077606Y4819650D02*
G01*
X8024266Y4792522D01*
X8024266Y4732477D01*
X8077606Y4705350D01*
G37*
G36*
X7823606Y4819650D02*
G01*
X7770215Y4792522D01*
X7770215Y4732477D01*
X7823555Y4705350D01*
G37*
G36*
X7924342Y4819650D02*
G01*
X7924393Y4705350D01*
X7977733Y4732477D01*
X7977733Y4792522D01*
G37*
G36*
X7924393Y5073599D02*
G01*
X7924393Y4959299D01*
X7977733Y4986477D01*
X7977733Y5046472D01*
G37*
G36*
X7924393Y5327650D02*
G01*
X7924393Y5213350D01*
X7977733Y5240477D01*
X7977733Y5300472D01*
G37*
G36*
X7924342Y5581650D02*
G01*
X7924393Y5467350D01*
X7977733Y5494477D01*
X7977733Y5554472D01*
G37*
G36*
X7823606Y5581650D02*
G01*
X7770215Y5554472D01*
X7770215Y5494477D01*
X7823555Y5467350D01*
G37*
G36*
X6800850Y3442106D02*
G01*
X6827977Y3388766D01*
X6888022Y3388766D01*
X6915150Y3442106D01*
G37*
G36*
X6546850Y3442106D02*
G01*
X6573977Y3388766D01*
X6634022Y3388766D01*
X6661150Y3442106D01*
G37*
G36*
X5530850Y3442106D02*
G01*
X5557977Y3388766D01*
X5618022Y3388766D01*
X5645150Y3442106D01*
G37*
G36*
X5557977Y3596233D02*
G01*
X5530850Y3542893D01*
X5645150Y3542893D01*
X5618022Y3596233D01*
G37*
G36*
X5784850Y3442106D02*
G01*
X5811977Y3388766D01*
X5872022Y3388766D01*
X5899150Y3442106D01*
G37*
G36*
X6038850Y3442106D02*
G01*
X6065977Y3388766D01*
X6126022Y3388766D01*
X6153150Y3442106D01*
G37*
G36*
X6292850Y3442106D02*
G01*
X6319977Y3388766D01*
X6380022Y3388766D01*
X6407150Y3442106D01*
G37*
G36*
X4768850Y3454806D02*
G01*
X4795977Y3401466D01*
X4855972Y3401466D01*
X4883150Y3454806D01*
G37*
G36*
X5022850Y3454806D02*
G01*
X5049977Y3401466D01*
X5109972Y3401466D01*
X5137150Y3454806D01*
G37*
G36*
X3752850Y3442106D02*
G01*
X3779977Y3388766D01*
X3840022Y3388766D01*
X3867150Y3442106D01*
G37*
G36*
X3779977Y3596233D02*
G01*
X3752850Y3542893D01*
X3867150Y3542893D01*
X3840022Y3596233D01*
G37*
G36*
X3498850Y3442106D02*
G01*
X3525977Y3388766D01*
X3586022Y3388766D01*
X3613150Y3442106D01*
G37*
G36*
X3244850Y3442106D02*
G01*
X3271977Y3388766D01*
X3332022Y3388766D01*
X3359150Y3442106D01*
G37*
G36*
X2357577Y7914233D02*
G01*
X2330450Y7860893D01*
X2444750Y7860893D01*
X2417622Y7914233D01*
G37*
G36*
X2611577Y7914233D02*
G01*
X2584450Y7860893D01*
X2698750Y7860893D01*
X2671622Y7914233D01*
G37*
G36*
X2865577Y7914233D02*
G01*
X2838450Y7860893D01*
X2952750Y7860893D01*
X2925622Y7914233D01*
G37*
G36*
X3119577Y7914233D02*
G01*
X3092450Y7860893D01*
X3206750Y7860893D01*
X3179622Y7914233D01*
G37*
G36*
X3092450Y7760106D02*
G01*
X3119577Y7706766D01*
X3179622Y7706766D01*
X3206750Y7760106D01*
G37*
G36*
X3373577Y7914233D02*
G01*
X3346450Y7860893D01*
X3460750Y7860893D01*
X3433622Y7914233D01*
G37*
G36*
X3346450Y7760106D02*
G01*
X3373577Y7706766D01*
X3433622Y7706766D01*
X3460750Y7760106D01*
G37*
G36*
X3627577Y7914233D02*
G01*
X3600450Y7860893D01*
X3714750Y7860893D01*
X3687622Y7914233D01*
G37*
G36*
X3600450Y7760106D02*
G01*
X3627577Y7706766D01*
X3687622Y7706766D01*
X3714750Y7760106D01*
G37*
G36*
X5811977Y7914233D02*
G01*
X5784850Y7860893D01*
X5899150Y7860893D01*
X5871972Y7914233D01*
G37*
G36*
X6065977Y7914233D02*
G01*
X6038850Y7860893D01*
X6153150Y7860893D01*
X6125972Y7914233D01*
G37*
G36*
X6827977Y7914233D02*
G01*
X6800850Y7860893D01*
X6915150Y7860893D01*
X6887972Y7914233D01*
G37*
G36*
X6573977Y7914233D02*
G01*
X6546850Y7860893D01*
X6661150Y7860893D01*
X6633972Y7914233D01*
G37*
G36*
X6319977Y7914233D02*
G01*
X6292850Y7860893D01*
X6407150Y7860893D01*
X6379972Y7914233D01*
G37*
G36*
X812393Y4565650D02*
G01*
X812393Y4451350D01*
X865733Y4478477D01*
X865733Y4538472D01*
G37*
G36*
X812393Y5073650D02*
G01*
X812393Y4959350D01*
X865733Y4986477D01*
X865733Y5046472D01*
G37*
G36*
X812393Y6089650D02*
G01*
X812393Y5975350D01*
X865733Y6002477D01*
X865733Y6062472D01*
G37*
G36*
X812393Y5835650D02*
G01*
X812393Y5721350D01*
X865733Y5748477D01*
X865733Y5808472D01*
G37*
D12*
X6096000Y4762500D02*
G01*
X8128000Y4762500D01*
X7874000Y5016474D02*
G01*
X8128000Y5016474D01*
X4572000Y4066070D02*
G01*
X4572000Y3822700D01*
X4318000Y4063471D02*
G01*
X4318000Y3822700D01*
X3302000Y3492500D02*
G01*
X3302000Y3251200D01*
X3556000Y3492500D02*
G01*
X3556000Y3251200D01*
X3810000Y3251200D02*
G01*
X3810000Y6527800D01*
X4064000Y3493609D02*
G01*
X4064000Y3251200D01*
X4318000Y3492500D02*
G01*
X4318000Y3251200D01*
X4825987Y3505200D02*
G01*
X4826000Y3251200D01*
X5079987Y3505200D02*
G01*
X5080000Y3251200D01*
X5842000Y3492500D02*
G01*
X5842000Y3251200D01*
X6096000Y3492500D02*
G01*
X6096000Y3251200D01*
X6350000Y3492500D02*
G01*
X6350000Y3251200D01*
X6604000Y3492500D02*
G01*
X6604000Y3251200D01*
X6858000Y3492500D02*
G01*
X6858000Y3251200D01*
X6857974Y8077174D02*
G01*
X6857974Y7810525D01*
X6603974Y8077174D02*
G01*
X6603974Y7810525D01*
X6349974Y8077174D02*
G01*
X6349974Y7810525D01*
X6095974Y8077200D02*
G01*
X6095974Y7810525D01*
X5841974Y8077200D02*
G01*
X5841974Y7810525D01*
X5588000Y8077200D02*
G01*
X5588000Y7810500D01*
X5334000Y8077200D02*
G01*
X5334000Y7810500D01*
X5080000Y8077200D02*
G01*
X5080000Y7810500D01*
X4673600Y8077200D02*
G01*
X4673600Y7810500D01*
X4419600Y8077174D02*
G01*
X4419600Y7810500D01*
X4165600Y8077174D02*
G01*
X4165600Y7810500D01*
X3911600Y8077200D02*
G01*
X3911600Y6032500D01*
X3657600Y8077200D02*
G01*
X3657600Y4254500D01*
X3403600Y8077200D02*
G01*
X3403600Y5778500D01*
X3149600Y8077200D02*
G01*
X3149600Y7048500D01*
X2895600Y8077174D02*
G01*
X2895600Y7810500D01*
X2641600Y8077174D02*
G01*
X2641600Y7810500D01*
X2387600Y8077174D02*
G01*
X2387600Y7810500D01*
X7620000Y7302500D02*
G01*
X8128000Y7302500D01*
X5588000Y3251200D02*
G01*
X5588000Y6273794D01*
X4064000Y3822700D02*
G01*
X4064000Y4061655D01*
X4064000Y4061655D02*
G01*
X4064000Y6781794D01*
X4826000Y4064000D02*
G01*
X4826000Y7289787D01*
X3556000Y3987812D02*
G01*
X3556000Y5524500D01*
X8128025Y5524494D02*
G01*
X7721625Y5524494D01*
X7721625Y6794494D01*
X8128025Y6794494D01*
X8128025Y7048494D02*
G01*
X8305825Y7048494D01*
X8305825Y5270494D01*
X7874025Y5270494D01*
X7874025Y7048494D02*
G01*
X8128025Y7048494D01*
X762025Y5016494D02*
G01*
X914425Y5016494D01*
X914425Y5778494D01*
X762025Y5778494D01*
X762025Y4508494D02*
G01*
X1003325Y4508494D01*
X1003325Y6032494D01*
X762025Y6032494D01*
X8128000Y6540474D02*
G01*
X7874000Y6540474D01*
X6527800Y7048474D02*
G01*
X8128000Y7048474D01*
D14*
G01*
X4673600Y8077200D03*
G01*
X4419600Y8077174D03*
G01*
X4165600Y8077174D03*
G01*
X3911600Y8077174D03*
G01*
X3657600Y8077174D03*
G01*
X3403600Y8077174D03*
G01*
X3149600Y8077174D03*
G01*
X2895600Y8077174D03*
G01*
X2641600Y8077174D03*
G01*
X2387600Y8077174D03*
G01*
X6857974Y8077174D03*
G01*
X6603974Y8077174D03*
G01*
X6349974Y8077174D03*
G01*
X6095974Y8077200D03*
G01*
X5841974Y8077200D03*
G01*
X5588000Y8077200D03*
G01*
X5334000Y8077200D03*
G01*
X5080000Y8077200D03*
G01*
X5588000Y3251200D03*
G01*
X5842000Y3251200D03*
G01*
X6096000Y3251200D03*
G01*
X6350000Y3251200D03*
G01*
X6604000Y3251200D03*
G01*
X6858000Y3251200D03*
G01*
X3302000Y3251200D03*
G01*
X3556000Y3251200D03*
G01*
X3810000Y3251200D03*
G01*
X4064000Y3251200D03*
G01*
X4318000Y3251200D03*
G01*
X4572000Y3251200D03*
G01*
X4826000Y3251200D03*
G01*
X5080000Y3251200D03*
D15*
G01*
X4572000Y4066082D03*
D14*
G01*
X4572000Y3822700D03*
D15*
G01*
X4318000Y4063466D03*
D14*
G01*
X4318000Y3822700D03*
D15*
G01*
X4064000Y4061663D03*
D14*
G01*
X4064000Y3822700D03*
D15*
G01*
X2828163Y5524474D03*
G01*
X3082188Y5524474D03*
G01*
X3082010Y4762474D03*
G01*
X2827985Y4762474D03*
G01*
X7874025Y7302525D03*
G01*
X7620000Y7302500D03*
G01*
X4318000Y3492500D03*
G01*
X4064000Y3493617D03*
G01*
X3911600Y7810500D03*
G01*
X4165600Y7810500D03*
G01*
X4419600Y7810500D03*
G01*
X4673600Y7810500D03*
G01*
X5080000Y7810500D03*
G01*
X5334000Y7810500D03*
G01*
X5588000Y7810500D03*
D14*
G01*
X4064000Y3822700D03*
G01*
X4318000Y3822700D03*
G01*
X4572000Y3822700D03*
D15*
G01*
X8128000Y7302500D03*
G01*
X8128000Y7048500D03*
G01*
X8128000Y6794500D03*
G01*
X8128000Y6540500D03*
G01*
X7873974Y6794474D03*
G01*
X7873974Y7048474D03*
G01*
X7873974Y7302474D03*
G01*
X7873974Y6540474D03*
G01*
X8128000Y5016474D03*
G01*
X8128000Y5270474D03*
G01*
X8128000Y5524474D03*
G01*
X8128000Y4762474D03*
G01*
X7873974Y4762474D03*
G01*
X7874000Y5016474D03*
G01*
X7874000Y5270474D03*
G01*
X7873974Y5524474D03*
G01*
X6858000Y3492500D03*
G01*
X6604000Y3492500D03*
G01*
X5588000Y3492500D03*
G01*
X5842000Y3492500D03*
G01*
X6096000Y3492500D03*
G01*
X6350000Y3492500D03*
G01*
X4826000Y3505200D03*
G01*
X5080000Y3505200D03*
G01*
X3810000Y3492500D03*
G01*
X3556000Y3492500D03*
G01*
X3302000Y3492500D03*
G01*
X2387600Y7810500D03*
G01*
X2641600Y7810500D03*
G01*
X2895600Y7810500D03*
G01*
X3149600Y7810500D03*
G01*
X3403600Y7810500D03*
G01*
X3657600Y7810500D03*
G01*
X5842000Y7810500D03*
G01*
X6096000Y7810500D03*
G01*
X6858000Y7810500D03*
G01*
X6604000Y7810500D03*
G01*
X6350000Y7810500D03*
G01*
X1143000Y4000474D03*
G01*
X1143000Y7302474D03*
G01*
X1143000Y7048474D03*
G01*
X1143000Y6794474D03*
G01*
X1143000Y6540474D03*
G01*
X1143000Y6286474D03*
G01*
X1143000Y6032474D03*
G01*
X1143000Y5778474D03*
G01*
X1143000Y5524474D03*
G01*
X1143000Y5270474D03*
G01*
X1143000Y4508474D03*
G01*
X1143000Y5016474D03*
G01*
X1143000Y4762474D03*
G01*
X1143000Y4254474D03*
G01*
X762000Y4000474D03*
G01*
X762000Y4254474D03*
G01*
X762000Y4508474D03*
G01*
X762000Y4762474D03*
G01*
X762000Y5016474D03*
G01*
X762000Y5270474D03*
G01*
X762000Y7302474D03*
G01*
X762000Y7048474D03*
G01*
X762000Y6794474D03*
G01*
X762000Y6540474D03*
G01*
X762000Y6286474D03*
G01*
X762000Y6032474D03*
G01*
X762000Y5778474D03*
G01*
X762000Y5524474D03*
D13*
G01*
X6096000Y4762500D03*
G01*
X4827524Y7302500D03*
G01*
X4826000Y4064000D03*
G01*
X3556000Y3987800D03*
G01*
X3657600Y4254500D03*
G01*
X3911600Y6032500D03*
G01*
X5588000Y6273800D03*
G01*
X4064000Y6794500D03*
G01*
X3556000Y5524500D03*
G01*
X3810000Y6527800D03*
G01*
X3149600Y7048500D03*
G01*
X3403600Y5778500D03*
G01*
X6527800Y7048474D03*
M02*
